Coordinates
version=1
nRows=60
nColumns=12
inDegrees=yes

Units are S.I. units (second, meters, Newtons, ...)
Angles are in degrees

endheader
time	SC_y	SC_z	SC_x	AC_y	AC_z	AC_x	GH_y	GH_z	GH_yy	EL_x	PS_y
       0.0              -41.44          36.73          54.24          69.64          -15.8          14.43         -134.7          66.88          24.69          111.8          156.5
   0.01516              -41.43          36.73          54.23          69.64          -15.8          14.42         -134.7          66.87          24.67          111.8          156.5
   0.03032              -41.43          36.73          54.23          69.64          -15.8          14.42         -134.7          66.87          24.65          111.8          156.5
   0.04548              -41.42          36.73          54.22          69.63         -15.79          14.41         -134.6          66.86          24.63          111.7          156.5
   0.06064              -41.42          36.73          54.22          69.63         -15.79          14.41         -134.6          66.86          24.61          111.7          156.5
    0.0758              -41.41          36.73          54.21          69.62         -15.79          14.41         -134.6          66.85          24.59          111.7          156.5
   0.09096              -41.41          36.73          54.21          69.62         -15.79           14.4         -134.6          66.84          24.56          111.7          156.5
    0.1061               -41.4          36.73           54.2          69.61         -15.78           14.4         -134.5          66.84          24.53          111.7          156.5
    0.1213              -41.39          36.73          54.19          69.61         -15.78          14.39         -134.5          66.83           24.5          111.7          156.5
    0.1364              -41.39          36.73          54.19           69.6         -15.78          14.39         -134.4          66.82          24.47          111.7          156.5
    0.1516              -41.38          36.73          54.18          69.59         -15.77          14.38         -134.4          66.81          24.44          111.7          156.5
    0.1668              -41.37          36.73          54.17          69.59         -15.77          14.37         -134.4           66.8          24.41          111.7          156.5
    0.1819              -41.36          36.73          54.16          69.58         -15.76          14.36         -134.3          66.79          24.37          111.6          156.5
    0.1971              -41.35          36.73          54.15          69.57         -15.76          14.36         -134.3          66.78          24.33          111.6          156.5
    0.2122              -41.34          36.73          54.14          69.56         -15.75          14.35         -134.2          66.77          24.28          111.6          156.5
    0.2274              -41.33          36.73          54.13          69.55         -15.75          14.34         -134.1          66.76          24.23          111.6          156.4
    0.2426              -41.32          36.73          54.12          69.54         -15.74          14.33         -134.1          66.74          24.18          111.6          156.4
    0.2577               -41.3          36.73           54.1          69.53         -15.74          14.32         -134.0          66.73          24.12          111.5          156.4
    0.2729              -41.29          36.72          54.09          69.52         -15.73          14.31         -133.9          66.71          24.06          111.5          156.4
     0.288              -41.27          36.72          54.07           69.5         -15.72          14.29         -133.8          66.69          23.99          111.5          156.4
    0.3032              -41.26          36.72          54.06          69.49         -15.71          14.28         -133.7          66.67          23.92          111.5          156.4
    0.3184              -41.24          36.72          54.04          69.47          -15.7          14.26         -133.6          66.65          23.83          111.4          156.4
    0.3335              -41.21          36.72          54.02          69.45         -15.69          14.25         -133.5          66.62          23.74          111.4          156.4
    0.3487              -41.19          36.72          53.99          69.43         -15.68          14.23         -133.4           66.6          23.64          111.4          156.4
    0.3638              -41.16          36.72          53.97          69.41         -15.67          14.21         -133.2          66.57          23.53          111.3          156.4
     0.379              -41.13          36.72          53.94          69.39         -15.65          14.18         -133.1          66.53           23.4          111.3          156.4
    0.3942               -41.1          36.72           53.9          69.36         -15.64          14.15         -132.9          66.49          23.26          111.2          156.4
    0.4093              -41.06          36.72          53.87          69.33         -15.62          14.12         -132.7          66.45           23.1          111.1          156.4
    0.4245              -41.02          36.72          53.82          69.29          -15.6          14.09         -132.5           66.4          22.92          111.1          156.3
    0.4396              -40.97          36.72          53.78          69.25         -15.58          14.05         -132.2          66.35          22.72          111.0          156.3
    0.4548              -40.92          36.72          53.72           69.2         -15.55          14.01         -131.9          66.28          22.48          110.9          156.3
      0.47              -40.86          36.72          53.66          69.15         -15.52          13.96         -131.6          66.21          22.22          110.8          156.3
    0.4851              -40.78          36.72          53.59          69.09         -15.48           13.9         -131.2          66.13          21.91          110.7          156.3
    0.5003               -40.7          36.72          53.51          69.02         -15.44          13.83         -130.7          66.03          21.55          110.5          156.2
    0.5154               -40.6          36.72          53.41          68.93          -15.4          13.75         -130.2          65.92          21.13          110.4          156.2
    0.5306              -40.48          36.72          53.29          68.83         -15.34          13.66         -129.6          65.79          20.64          110.2          156.2
    0.5458              -40.35          36.72          53.16          68.72         -15.27          13.55         -128.8          65.63          20.05          109.9          156.1
    0.5609              -40.18          36.72          52.99          68.58         -15.19          13.41         -127.9          65.44          19.35          109.6          156.1
    0.5761              -39.98          36.72           52.8          68.41          -15.1          13.25         -126.8          65.21           18.5          109.3          156.0
    0.5912              -39.73          36.72          52.56           68.2         -14.98          13.05         -125.5          64.93          17.46          108.9          155.9
    0.6064              -39.43          36.71          52.26          67.94         -14.83          12.81         -123.9          64.58          16.17          108.4          155.8
    0.6216              -39.06          36.71          51.89          67.62         -14.65           12.5         -121.8          64.15          14.57          107.7          155.7
    0.6367              -38.58          36.71          51.42          67.22         -14.42          12.12         -119.3           63.6          12.56          106.9          155.5
    0.6519              -37.98           36.7          50.82          66.71         -14.13          11.64         -116.0          62.91          9.997          105.9          155.3
     0.667              -37.21           36.7          50.06          66.05         -13.75          11.01         -111.8          62.02          6.717          104.6          155.1
    0.6822              -36.22          36.69          49.08          65.21         -13.27          10.21         -106.5          60.89          2.508          102.9          154.7
    0.6974              -34.95          36.68          47.83          64.13         -12.66          9.192         -99.64          59.43         -2.868          100.8          154.3
    0.7125              -33.36          36.67          46.26          62.78         -11.89          7.908         -91.03          57.61         -9.627          98.12          153.8
    0.7277              -31.42          36.66          44.35          61.14         -10.95          6.344         -80.54          55.38         -17.87          94.85          153.1
    0.7428              -29.17          36.65          42.13          59.23         -9.867           4.53         -68.39           52.8         -27.41          91.05          152.4
     0.758              -26.74          36.63          39.73          57.16         -8.689          2.567         -55.23          50.01         -37.75          86.94          151.6
    0.7732               -24.3          36.62          37.33          55.09         -7.512         0.6032         -42.07          47.21         -48.09          82.83          150.8
    0.7883              -22.05           36.6          35.11          53.18         -6.424          -1.21         -29.91          44.63         -57.64          79.03          150.0
    0.8035              -20.12          36.59           33.2          51.54         -5.486         -2.775         -19.42          42.41         -65.88          75.76          149.4
    0.8186              -18.52          36.58          31.63          50.19         -4.716         -4.059         -10.82          40.58         -72.64          73.07          148.8
    0.8338              -17.26          36.57          30.38          49.11         -4.104          -5.08         -3.974          39.13         -78.01          70.93          148.4
     0.849              -16.27          36.57           29.4          48.27         -3.625         -5.879          1.383          37.99         -82.22          69.26          148.1
    0.8641               -15.5          36.56          28.64          47.61         -3.251         -6.502          5.558           37.1          -85.5          67.95          147.8
    0.8793              -14.89          36.56          28.04           47.1         -2.959         -6.988           8.82          36.41         -88.06          66.93          147.6
    0.8944              -14.42          36.56          27.57           46.7          -2.73         -7.371          11.39          35.87         -90.08          66.13          147.5
